<svg width="18" height="18" viewBox="0 0 18 18" fill="none" xmlns="http://www.w3.org/2000/svg">
<path d="M4.66667 1.5H4.16667C3.23325 1.5 2.76654 1.5 2.41002 1.68166C2.09641 1.84144 1.84144 2.09641 1.68166 2.41002C1.5 2.76654 1.5 3.23325 1.5 4.16667V13.8333C1.5 14.7668 1.5 15.2335 1.68166 15.59C1.84144 15.9036 2.09641 16.1586 2.41002 16.3183C2.76654 16.5 3.23325 16.5 4.16667 16.5H4.66667C5.60009 16.5 6.0668 16.5 6.42332 16.3183C6.73692 16.1586 6.99189 15.9036 7.15168 15.59C7.33333 15.2335 7.33333 14.7668 7.33333 13.8333V4.16667C7.33333 3.23325 7.33333 2.76654 7.15168 2.41002C6.99189 2.09641 6.73692 1.84144 6.42332 1.68166C6.0668 1.5 5.60009 1.5 4.66667 1.5Z" stroke="#667085" stroke-width="1.66667" stroke-linecap="round" stroke-linejoin="round"/>
<path d="M13.8333 1.5H13.3333C12.3999 1.5 11.9332 1.5 11.5767 1.68166C11.2631 1.84144 11.0081 2.09641 10.8483 2.41002C10.6667 2.76654 10.6667 3.23325 10.6667 4.16667V13.8333C10.6667 14.7668 10.6667 15.2335 10.8483 15.59C11.0081 15.9036 11.2631 16.1586 11.5767 16.3183C11.9332 16.5 12.3999 16.5 13.3333 16.5H13.8333C14.7668 16.5 15.2335 16.5 15.59 16.3183C15.9036 16.1586 16.1586 15.9036 16.3183 15.59C16.5 15.2335 16.5 14.7668 16.5 13.8333V4.16667C16.5 3.23325 16.5 2.76654 16.3183 2.41002C16.1586 2.09641 15.9036 1.84144 15.59 1.68166C15.2335 1.5 14.7668 1.5 13.8333 1.5Z" stroke="#667085" stroke-width="1.66667" stroke-linecap="round" stroke-linejoin="round"/>
</svg>
