<svg width="16" height="18" viewBox="0 0 16 18" fill="none" xmlns="http://www.w3.org/2000/svg">
<path d="M6.33325 14V4C6.33325 3.22343 6.33325 2.83515 6.20638 2.52886C6.03723 2.12048 5.71277 1.79602 5.30439 1.62687C4.99811 1.5 4.60982 1.5 3.83325 1.5C3.05668 1.5 2.6684 1.5 2.36211 1.62687C1.95373 1.79602 1.62928 2.12048 1.46012 2.52886C1.33325 2.83515 1.33325 3.22343 1.33325 4V14C1.33325 14.7766 1.33325 15.1649 1.46012 15.4711C1.62928 15.8795 1.95373 16.204 2.36211 16.3731C2.6684 16.5 3.05668 16.5 3.83325 16.5C4.60982 16.5 4.99811 16.5 5.30439 16.3731C5.71277 16.204 6.03723 15.8795 6.20638 15.4711C6.33325 15.1649 6.33325 14.7766 6.33325 14Z" stroke="#667085" stroke-width="1.66667" stroke-linecap="round" stroke-linejoin="round"/>
<path d="M14.6666 10.6667V4C14.6666 3.22343 14.6666 2.83515 14.5397 2.52886C14.3706 2.12048 14.0461 1.79602 13.6377 1.62687C13.3314 1.5 12.9432 1.5 12.1666 1.5C11.39 1.5 11.0017 1.5 10.6954 1.62687C10.2871 1.79602 9.96261 2.12048 9.79345 2.52886C9.66658 2.83515 9.66659 3.22343 9.66659 4V10.6667C9.66659 11.4432 9.66658 11.8315 9.79345 12.1378C9.96261 12.5462 10.2871 12.8706 10.6954 13.0398C11.0017 13.1667 11.39 13.1667 12.1666 13.1667C12.9432 13.1667 13.3314 13.1667 13.6377 13.0398C14.0461 12.8706 14.3706 12.5462 14.5397 12.1378C14.6666 11.8315 14.6666 11.4432 14.6666 10.6667Z" stroke="#667085" stroke-width="1.66667" stroke-linecap="round" stroke-linejoin="round"/>
</svg>
